PathFileType	4	(X/Y/Z)	/Users/niels/Desktop/University/Third Semester/Perception and Action/Exam/Gymnastics Motion Tracking/Code for Gym Tracking/Analyzed Data/Webcam_Backflip/id19_4_trajectory_Sports2D/id19_4_trajectory_Sports2D_px_person00.trc
DataRate	CameraRate	NumFrames	NumMarkers	Units	OrigDataRate	OrigDataStartFrame	OrigNumFrames
29.714285714285715	29.714285714285715	9	22	m	29.714285714285715	0	105
Frame#	Time	Hip			RHip			RKnee			RAnkle			RBigToe			RSmallToe			RHeel			LHip			LKnee			LAnkle			LBigToe			LSmallToe			LHeel			Neck			Head			Nose			RShoulder			RElbow			RWrist			LShoulder			LElbow			LWrist		
		X1	Y1	Z1	X2	Y2	Z2	X3	Y3	Z3	X4	Y4	Z4	X5	Y5	Z5	X6	Y6	Z6	X7	Y7	Z7	X8	Y8	Z8	X9	Y9	Z9	X10	Y10	Z10	X11	Y11	Z11	X12	Y12	Z12	X13	Y13	Z13	X14	Y14	Z14	X15	Y15	Z15	X16	Y16	Z16	X17	Y17	Z17	X18	Y18	Z18	X19	Y19	Z19	X20	Y20	Z20	X21	Y21	Z21	X22	Y22	Z22
0	0.0	1.000334958805488	-0.7089615942440707	0.0	0.9952245665926234	-0.7038515502546935	0.0	0.996909042302158	-0.8332064548713128	0.0	0.9781984366282093	-0.9591485721466108	0.0	1.0241541205673872	-0.9795738301921045	0.0	1.0156431224569085	-0.986386446445383	0.0	0.9662994885155655	-0.979573540242066	0.0	1.0105424146252615	-0.7038539770337624	0.0	1.000310360891003	-0.8315028216784098	0.0	0.9833076021824055	-0.9523440402909764	0.0	1.0292503382276283	-0.9710642959972181	0.0	1.0241446757157657	-0.9676602970251007	0.0	0.9679918959233975	-0.9710688526412674	0.0	0.9799129071262909	-0.5251439078297264	0.0	0.9901377827570426	-0.4417542149348037	0.0	1.0088548189869184	-0.4911062859999921	0.0	0.9714102584899295	-0.5438647136795166	0.0	1.059825398020822	-0.5489268956896004	0.0	1.134626552339771	-0.5199510304174998	0.0	0.9748015815370207	-0.5421509347723433	0.0	1.0495834546004448	-0.5489233415910708	0.0	1.1295236281406944	-0.5216408258567625	0.0
1	0.03365384615384615	0.9987622241204362	-0.7091329107776512	0.0	0.9936030543222328	-0.7051959208843694	0.0	0.9989295640066527	-0.8341621784539166	0.0	0.978324565879078	-0.9602273665735676	0.0	1.0246628549216386	-0.9792736906372973	0.0	1.0156198724181136	-0.985645418039353	0.0	0.9665911644410664	-0.9802996056000426	0.0	1.0095022893097405	-0.7044078500769521	0.0	1.001713369472455	-0.8322153034362173	0.0	0.9842215381765512	-0.9518088708645925	0.0	1.030589777853277	-0.9706402564422502	0.0	1.025199484590674	-0.9666712462577447	0.0	0.969115188545134	-0.9704516071116738	0.0	0.9804796657231424	-0.5256813144159306	0.0	0.9946413183362097	-0.4435191424275383	0.0	1.0114017704172178	-0.4936456332802904	0.0	0.9721930849262986	-0.5440994182447788	0.0	1.0607888737409	-0.5546210152140052	0.0	1.1376584870837063	-0.5288760139740628	0.0	0.9742569695826714	-0.5420050507489426	0.0	1.0500653392641308	-0.5558635579977584	0.0	1.1317575560136999	-0.5313807138684937	0.0
2	0.0673076923076923	0.9970177996675439	-0.7091992616239913	0.0	0.991846341220836	-0.706301053656348	0.0	1.0009147228499002	-0.834639553434247	0.0	0.978403654603037	-0.9609732655899376	0.0	1.02512731580831	-0.9786301177783977	0.0	1.0156303680664636	-0.9845564165702411	0.0	0.9668561033224828	-0.9806722313892456	0.0	1.0082593871283227	-0.7048949383268152	0.0	1.0031052157255018	-0.8324476148134122	0.0	0.9849415160854287	-0.9508500871455854	0.0	1.0317964569653275	-0.9698168011386362	0.0	1.0262298249371604	-0.9652005586382411	0.0	0.9700436557552953	-0.9693373511175466	0.0	0.9813300028223029	-0.5258563845529388	0.0	0.999107316374765	-0.44520566590424837	0.0	1.0140824280654903	-0.4959118308723719	0.0	0.9731976379605957	-0.5443048292994709	0.0	1.0615484500196897	-0.5608025920959532	0.0	1.1404289272744104	-0.5392405591502807	0.0	0.9738764346526293	-0.541793360960421	0.0	1.0502970903963957	-0.563249381011732	0.0	1.1336226731443781	-0.5423652933757236	0.0
3	0.10096153846153846	0.9949763070946317	-0.7091358259069265	0.0	0.9898809960789976	-0.707042375232465	0.0	1.002739145283466	-0.8342849981905661	0.0	0.9784082994106075	-0.9611900311254173	0.0	1.0255841980283247	-0.977451082785207	0.0	1.015802931692019	-0.982954497576063	0.0	0.96702556440213	-0.980482026338922	0.0	1.0066183793342667	-0.7052887399103082	0.0	1.0044050851016393	-0.831881896962035	0.0	0.9853405118309942	-0.9493154841132544	0.0	1.0327237816502177	-0.9684724319423501	0.0	1.0271461891277378	-0.9631348610143992	0.0	0.970580611535646	-0.967541611227062	0.0	0.9826857174125676	-0.5254913768746504	0.0	1.0035946991525773	-0.4467202898966348	0.0	1.0170800040974013	-0.4977213125632999	0.0	0.9745647850973297	-0.5444282983704607	0.0	1.0618223277839927	-0.5678318317176619	0.0	1.142525372747325	-0.5521691332264211	0.0	0.9738970924362158	-0.5415011697942682	0.0	1.050159166827166	-0.5712026684672159	0.0	1.1347214296438557	-0.5554897292049086	0.0
4	0.1346153846153846	0.9926210356660683	-0.7089652727625437	0.0	0.9877266538357027	-0.7074387717061963	0.0	1.004174413320495	-0.8330247552452127	0.0	0.9783547081927719	-0.960871640320916	0.0	1.026079471458488	-0.9758166903578538	0.0	1.016239091081628	-0.9809688642735637	0.0	0.9670161983423328	-0.9797322387477831	0.0	1.004515511800592	-0.7055975432506165	0.0	1.0054645759198062	-0.8304957135487187	0.0	0.9853890612478015	-0.9474128064182674	0.0	1.03325358825055	-0.9668128013137869	0.0	1.0278444271393996	-0.9607890505558024	0.0	0.9706128647991088	-0.9653057818323488	0.0	0.9846458368824476	-0.5246467941408318	0.0	1.0082393725012078	-0.447951589540202	0.0	1.02055611446764	-0.4989776095061115	0.0	0.9762713074404621	-0.544405751988035	0.0	1.0612320553370447	-0.5758066432251099	0.0	1.1434119188051157	-0.5681853428131967	0.0	0.9746474106974616	-0.5411771710403396	0.0	1.0497408278260847	-0.5794432094570319	0.0	1.1346982934411867	-0.5710776395886541	0.0
5	0.16826923076923075	0.990046512494995	-0.7086900215413261	0.0	0.9854843932688998	-0.7076028109527468	0.0	1.0049740750402931	-0.831130515231301	0.0	0.9782822766528487	-0.9601787858948096	0.0	1.026576423133005	-0.9740972746972267	0.0	1.0168668982181992	-0.9790142651268555	0.0	0.9667945002181861	-0.9786396616043849	0.0	1.0020918984035727	-0.7058364570074563	0.0	1.0061363113181279	-0.8285743997710208	0.0	0.985103676720832	-0.945647471167488	0.0	1.0333972752900562	-0.9652648866927783	0.0	1.0283011473907064	-0.958765264775265	0.0	0.9701417622487458	-0.9632226134494593	0.0	0.9871804092057834	-0.5235573244333974	0.0	1.0132158951160726	-0.44883250296620414	0.0	1.024554265903132	-0.49969861756079026	0.0	0.9781439498996951	-0.5441887686079455	0.0	1.0593010711311157	-0.5845245899133001	0.0	1.1424219475142026	-0.5871445968503665	0.0	0.976457815343477	-0.5409228508399282	0.0	1.049183949119056	-0.587563971281572	0.0	1.1332423491336057	-0.5888806828154911	0.0
6	0.20192307692307693	0.9874154915784589	-0.7083290449272744	0.0	0.9833305328537046	-0.7076743218372942	0.0	1.005005209333321	-0.8290953873293322	0.0	0.9782081752129609	-0.9593790279537526	0.0	1.0269963353570348	-0.9727769819700466	0.0	1.0174956345859285	-0.9775940628476458	0.0	0.9664000410214917	-0.9775487075347905	0.0	0.9996212124197708	-0.7060317762151743	0.0	1.0063499944441772	-0.8265767871670245	0.0	0.9845048139894219	-0.9445701225172265	0.0	1.0332959241368254	-0.9642760514213078	0.0	1.0285605108722167	-0.9576777617251594	0.0	0.9692583343394192	-0.9619419891004911	0.0	0.990178375204066	-0.5225290256798034	0.0	1.018635086075972	-0.4494128586565636	0.0	1.028977452467508	-0.5000762050138822	0.0	0.9799885022187427	-0.543783103857639	0.0	1.055612412060064	-0.5935319990482018	0.0	1.1388658971514716	-0.6082241593396487	0.0	0.9795068588293595	-0.5408796096342592	0.0	1.048494217124487	-0.5953114171076753	0.0	1.130091443175205	-0.6080820889442206	0.0
7	0.23557692307692307	0.9849506593504541	-0.7080122780298278	0.0	0.9815334923723851	-0.7077903409374384	0.0	1.0043233521024948	-0.8273984611925082	0.0	0.978131002142161	-0.9587585035706081	0.0	1.027340586339076	-0.9722187767002173	0.0	1.0180019514675736	-0.9770347661777027	0.0	0.9659219730999902	-0.9767906631760881	0.0	0.9973583575376331	-0.7062497586960578	0.0	1.006130341666612	-0.8249574258534104	0.0	0.9836664312966578	-0.9444679331094492	0.0	1.0330951354057003	-0.9641382912374159	0.0	1.0286501228783194	-0.9578735869334662	0.0	0.9681459481434685	-0.9618169786095168	0.0	0.9935309031750508	-0.521844404572388	0.0	1.0244626540469526	-0.4498798323509491	0.0	1.033651209040496	-0.5004611911746532	0.0	0.9817404816604434	-0.5432662839588651	0.0	1.0499730565725067	-0.6022393062064104	0.0	1.1321141618473534	-0.6299919823807905	0.0	0.9837645341065109	-0.5412009555748972	0.0	1.0475753564887507	-0.6025478282180865	0.0	1.1250433493043737	-0.6273608821333592	0.0
8	0.2692307692307692	0.9829305431210645	-0.7079526255179709	0.0	0.9803981370239966	-0.7080597806367186	0.0	1.0031415816192377	-0.826331786665428	0.0	0.9780664702717874	-0.9585132648352748	0.0	1.0277149554935567	-0.972556341684055	0.0	1.0184192503236134	-0.9773894403439297	0.0	0.965480165339243	-0.9765815110888878	0.0	0.9954321632898027	-0.7065791420980774	0.0	1.005547579463652	-0.8240322031413184	0.0	0.9827491366722366	-0.945297077670702	0.0	1.0328580991857321	-0.9649591971056165	0.0	1.028556894569083	-0.9593785625726766	0.0	0.9670387069424432	-0.9628169128589114	0.0	0.9971494098649593	-0.5216734006508047	0.0	1.0305799329719383	-0.4505023318407774	0.0	1.0383892848033573	-0.5012087896222728	0.0	0.9835085832767471	-0.5427465132830805	0.0	1.042436657480799	-0.6100240889920548	0.0	1.1216337753493957	-0.6506113582847627	0.0	0.9889351388680983	-0.5419542454512563	0.0	1.0461958196713905	-0.6090420334134259	0.0	1.1179192383473717	-0.6451040570707693	0.0
